<!-- Generated by IcoMoon.io -->
<svg version="1.1" xmlns="http://www.w3.org/2000/svg" width="512" height="512" viewBox="0 0 512 512">
<title></title>
<g id="icomoon-ignore">
</g>
<path transform="scale (-1, 1)" transform-origin="256 256" d="M440 128h-24v-24c0-22.056-17.944-40-40-40h-24v-24c0-22.056-17.943-40-40-40h-240c-22.056 0-40 17.944-40 40v304c0 22.057 17.944 40 40 40h24v24c0 22.057 17.944 40 40 40h24v24c0 22.056 17.944 40 40 40h240c22.056 0 40-17.944 40-40v-304c0-22.056-17.944-40-40-40zM72.001 352c-4.4 0-8-3.6-8-8v-304c0-4.4 3.6-8 8-8h240c4.4 0 8 3.6 8 8v24h-184.001c-22.056 0-40 17.944-40 40v248h-23.999zM136 416c-4.4 0-8-3.6-8-8v-304c0-4.4 3.6-8 8-8h240c4.4 0 8 3.6 8 8v24h-184c-22.056 0-40 17.944-40 40v248h-24zM448 472c0 4.4-3.6 8-8 8h-240c-4.4 0-8-3.6-8-8v-304c0-4.4 3.6-8 8-8h240c4.4 0 8 3.6 8 8v304z"></path>
</svg>
